<?xml version="1.0" encoding="utf-8"?>
<!-- Generator: Adobe Illustrator 19.0.0, SVG Export Plug-In . SVG Version: 6.00 Build 0)  -->
<svg version="1.1" id="Layer_1" xmlns="http://www.w3.org/2000/svg" xmlns:xlink="http://www.w3.org/1999/xlink" x="0px" y="0px"
	 viewBox="-1159 2696.5 439 192.1" style="enable-background:new -1159 2696.5 439 192.1;" xml:space="preserve">
<style type="text/css">
	.st0{fill:#3D373A;}
	.st1{fill:#FFBF10;}
	.st2{fill:#C57706;}
</style>
<g>
	<path class="st0" d="M-1066.1,2855.3c1-8.3,6-12.5,13.1-12.5c7.6,0,11.6,4.7,12.4,12.5H-1066.1z M-1053.1,2832.2
		c-16.5,0-26.5,13.2-26.5,28.2c0,16.8,11,28.2,30.6,28.2c6.7,0,12.4-1,18.6-3l-2.5-9.8c-5,1.3-10.8,2.1-16,2.1
		c-10.1,0-17.2-4.8-17.4-13h38.6v-4.1C-1027.7,2843.9-1037.3,2832.2-1053.1,2832.2"/>
	<path class="st0" d="M-989.7,2832.2c-8.1,0-15.1,4.5-18.6,9.6v-8.6h-13.3v54.4h13.6v-30.3c0-7.6,6.6-13,12.7-13
		c6.8,0,9.8,4,9.8,10.7v32.5h13.6v-34.5C-971.7,2840.6-977.4,2832.2-989.7,2832.2"/>
	<path class="st0" d="M-932,2867.4c0,6.8-4.6,11.4-11.9,11.4c-5.6,0-8.5-2.1-8.5-6.6c0-4.9,3-6.8,8.5-6.8h11.9V2867.4z
		 M-943.9,2832.2c-6.4,0-13.3,0.7-19.1,1.9l1.1,10.1c5.9-0.8,11.1-1.2,16.8-1.2c10.1,0,13.1,2.9,13.1,8.9v4.6h-16.3
		c-11.2,0-17.7,5.6-17.7,15.9c0,9.5,7.4,16.2,18.3,16.2c7.5,0,12.6-2.5,16.2-6.9v6h13.1v-35.4
		C-918.4,2838.7-927.9,2832.2-943.9,2832.2"/>
	<path class="st0" d="M-882.2,2843.2c3.2,0,7,0.3,10.8,1.2l2.2-9.8c-4.5-1.7-9.2-2.3-14.2-2.3c-18.1,0-30.1,12.3-30.1,28.2
		c0,15.9,12,28.2,30.1,28.2c4.5,0,10.4-1.1,14.2-2.6l-2.2-9.9c-4.1,1.1-7,1.7-10.8,1.7c-11.8,0-17.5-7.2-17.5-17.3
		C-899.7,2850.2-894,2843.2-882.2,2843.2"/>
	<path class="st0" d="M-799.4,2863.5c0,7.6-6.6,12.9-12.7,12.9c-6.8,0-9.7-4-9.7-10.7v-32.4h-1.8h-27.4v-15.3h-13.6v15.3v9.2v29.6
		c0,12,7.3,16.5,17.2,16.5c2.7,0,5.9-0.4,7.8-0.9l-1.2-10.1c-1.2,0.2-3,0.5-3.9,0.5c-3.6,0-6.3-1.2-6.3-6.9v-28.7h15.6v25.4
		c0,12.5,5.7,20.8,18,20.8c8.1,0,15-4.5,18.4-9.6v8.7h13.4v-54.4h-13.8L-799.4,2863.5L-799.4,2863.5z"/>
	<path class="st0" d="M-753.6,2855.3c-9.6-3.8-12.2-4.7-12.2-8.3c0-2.9,2-4.2,9.2-4.2c5.4,0,12.1,1.1,16.5,2.3l2.4-9.9
		c-5.9-2-13.9-2.9-19.1-2.9c-14.2,0-22,5-22,15.2c0,9.2,4.8,12.1,19.3,18c8.3,3.4,10.4,4.2,10.4,7.5c0,3-2.5,5.1-9.6,5.1
		c-5.6,0-12.5-1.6-19.1-3.9l-3,9.5c6.7,2.9,15.2,4.9,22.2,4.9c13.8,0,22.8-6.5,22.8-16.2C-735.8,2863.2-740,2860.6-753.6,2855.3"/>
	<polygon class="st0" points="-732.1,2882 -732.1,2881.3 -726.9,2881.3 -726.9,2882 -729.1,2882 -729.1,2887.7 -729.9,2887.7 
		-729.9,2882 	"/>
	<polygon class="st0" points="-725.2,2881.3 -723.2,2886.6 -721.2,2881.3 -720,2881.3 -720,2887.7 -720.8,2887.7 -720.8,2882.3 
		-720.8,2882.3 -722.8,2887.7 -723.6,2887.7 -725.6,2882.3 -725.6,2882.3 -725.6,2887.7 -726.4,2887.7 -726.4,2881.3 	"/>
	<polygon class="st1" points="-1008.5,2793.3 -1038.4,2763.5 -1105.3,2696.5 -1105.3,2793.3 -1159,2793.3 -1105.3,2847 
		-1051.8,2793.3 	"/>
	<polygon class="st2" points="-1105.3,2847 -1105.3,2793.3 -1111.4,2793.3 	"/>
	<polygon class="st2" points="-1030.2,2771.6 -1051.8,2793.3 -1045.1,2793.3 	"/>
</g>
</svg>
